<svg width="881" height="591" viewBox="0 0 881 591" fill="none" xmlns="http://www.w3.org/2000/svg">
<mask id="mask0_55_52" style="mask-type:alpha" maskUnits="userSpaceOnUse" x="0" y="0" width="881" height="604">
<rect width="880.887" height="604" fill="#D9D9D9"/>
</mask>
<g mask="url(#mask0_55_52)">
<rect x="9.75488" y="67.7474" width="667.104" height="438.231" rx="20" fill="#6EB0F6"/>
<path d="M343.679 15.5781H121.937C107.35 15.5781 95.5244 27.4034 95.5244 41.9906V359.122C95.5244 373.709 107.35 385.534 121.937 385.534H343.679C358.266 385.534 370.091 373.709 370.091 359.122V41.9906C370.091 27.4034 358.266 15.5781 343.679 15.5781Z" fill="white" stroke="#372E46" stroke-width="2" stroke-miterlimit="10"/>
<path d="M235.964 389.31L231.513 379.318L334.201 354.427L366.737 307.298L375.02 303.304L392.143 333.554L384.114 413.719L346.855 424.364L289.193 441.22L273.226 438.558L255.483 427.026L235.964 389.31Z" fill="white"/>
<path d="M96.684 34.2955L366.275 34.4502" stroke="#372E46" stroke-width="2" stroke-miterlimit="10"/>
<path d="M124.811 53.8833L216.385 53.4966" stroke="#372E46" stroke-width="2" stroke-miterlimit="10"/>
<path d="M125.456 68.7026L217.03 68.3159" stroke="#372E46" stroke-width="2" stroke-miterlimit="10"/>
<path d="M125.456 86.1049L168.639 85.7182" stroke="#372E46" stroke-width="2" stroke-miterlimit="10"/>
<path d="M257.583 173.766L349.157 173.379" stroke="#372E46" stroke-width="2" stroke-miterlimit="10"/>
<path d="M257.583 159.574L349.157 159.187" stroke="#372E46" stroke-width="2" stroke-miterlimit="10"/>
<path d="M258.228 188.587L349.802 188.2" stroke="#372E46" stroke-width="2" stroke-miterlimit="10"/>
<path d="M258.228 205.988L301.411 205.601" stroke="#372E46" stroke-width="2" stroke-miterlimit="10"/>
<path d="M212.26 168.625H110.271C107.466 168.625 105.192 170.898 105.192 173.703V289.872C105.192 292.677 107.466 294.951 110.271 294.951H212.26C215.065 294.951 217.339 292.677 217.339 289.872V173.703C217.339 170.898 215.065 168.625 212.26 168.625Z" stroke="#372E46" stroke-width="2" stroke-miterlimit="10"/>
<path d="M342.596 57.7676H253.214C248.707 57.7676 245.054 61.4208 245.054 65.9272V117.927C245.054 122.434 248.707 126.087 253.214 126.087H342.596C347.103 126.087 350.756 122.434 350.756 117.927V65.9272C350.756 61.4208 347.103 57.7676 342.596 57.7676Z" fill="#372E46"/>
<path d="M218.848 157.014H83.0596C78.5531 157.014 74.8999 160.668 74.8999 165.174V275.181C74.8999 279.688 78.5531 283.341 83.0596 283.341H218.848C223.354 283.341 227.007 279.688 227.007 275.181V165.174C227.007 160.668 223.354 157.014 218.848 157.014Z" fill="#372E46"/>
<path d="M189.831 102.949H134.402C129.063 102.949 124.734 107.278 124.734 112.617C124.734 117.957 129.063 122.285 134.402 122.285H189.831C195.17 122.285 199.499 117.957 199.499 112.617C199.499 107.278 195.17 102.949 189.831 102.949Z" fill="#372E46"/>
<path d="M147.292 319.513H91.8629C86.5235 319.513 82.1951 323.841 82.1951 329.18C82.1951 334.52 86.5235 338.848 91.8629 338.848H147.292C152.631 338.848 156.96 334.52 156.96 329.18C156.96 323.841 152.631 319.513 147.292 319.513Z" fill="#372E46"/>
<path d="M327.758 233.143H272.329C266.99 233.143 262.661 237.471 262.661 242.81C262.661 248.15 266.99 252.478 272.329 252.478H327.758C333.098 252.478 337.426 248.15 337.426 242.81C337.426 237.471 333.098 233.143 327.758 233.143Z" fill="#372E46"/>
<path d="M510.083 224.765L516.292 255.814L522.502 264.685L492.34 287.75L471.05 266.459C470.163 258.771 468.034 243.394 466.614 243.394C466.91 246.647 452.539 243.394 447.098 239.846C430.775 229.201 432.017 202.292 434.679 190.168L426.695 183.958L436.453 176.861L447.098 165.329L471.05 144.926L495.889 140.49L507.421 144.926L518.954 151.135L526.051 160.006L527.825 151.135L533.147 140.49L549.115 136.055L562.422 140.49L569.519 151.135V161.781L565.083 172.426L554.438 178.636H542.018L531.373 172.426L527.825 191.942L531.373 193.716L536.696 201.7L533.147 214.12L522.502 220.33H518.954L510.083 217.668V224.765Z" fill="white"/>
<path d="M478.736 523.568L470.644 489.415L659.327 449.616L723.237 611.813L438.269 617.67L450.713 588.387L478.736 523.568Z" fill="#372E46"/>
<path d="M418.972 405.251L420.137 408.745L562.344 405.251L627.642 358.405L629.616 343.677L632.002 330.019L636.199 311.013L640.66 295.12V294.094L626.923 286.513L614.687 280.034L606.047 275.259L596.315 270.53L586.81 266.028L578.079 263.026L567.392 258.888L562.344 257.114L553.021 254.886L545.791 253.749L538.56 253.34L526.281 253.068L518.463 254.438L515.693 255.582L514.286 261.604L511.603 266.486L506.282 272.29L500.697 275.501L495.64 276.644L488.648 277.435L481.48 276.028L476.516 272.955L471.26 268.654V266.582L451.244 271.998L424.591 281.078L407.761 287.343L386.099 296.955L370.328 304.389L359.274 311.013L344.194 317.024L330.887 326.783L359.274 362.267L366.512 372.305L373.71 386.918L377.785 396.719L382.294 409.813L384.596 419.331L383.625 423.507L398.385 415.156L418.972 405.251Z" fill="#FF6200"/>
<path d="M785.022 86.1219H756.946C753.308 86.1219 750.359 89.071 750.359 92.7089V216.174C750.359 219.812 753.308 222.761 756.946 222.761H785.022C788.659 222.761 791.609 219.812 791.609 216.174V92.7089C791.609 89.071 788.659 86.1219 785.022 86.1219Z" fill="white" stroke="#372E46" stroke-width="2" stroke-miterlimit="10"/>
<path d="M769.554 68.0767H642.222C638.584 68.0767 635.635 71.0258 635.635 74.6637V207.152C635.635 210.79 638.584 213.739 642.222 213.739H769.554C773.192 213.739 776.141 210.79 776.141 207.152V74.6637C776.141 71.0258 773.192 68.0767 769.554 68.0767Z" fill="white" stroke="#372E46" stroke-width="2" stroke-miterlimit="10"/>
<path d="M640.488 294.847C635.757 314.954 626.294 355.702 626.294 357.831L644.924 382.67L667.101 379.122L686.618 368.476L700.811 348.073L707.908 315.25L722.102 201.7L678.634 209.684L654.682 299.282L640.488 294.847Z" fill="white"/>
<path d="M667.268 13.2269H431.115C421.219 13.2269 413.197 21.2489 413.197 31.1446V82.9642C413.197 92.8599 421.219 100.882 431.115 100.882H667.268C677.164 100.882 685.186 92.8599 685.186 82.9642V31.1446C685.186 21.2489 677.164 13.2269 667.268 13.2269Z" fill="white" stroke="#372E46" stroke-width="2" stroke-miterlimit="10"/>
<path d="M527.523 191.482C530.853 182.886 530.83 173.353 527.458 164.773C524.086 156.194 517.613 149.195 509.321 145.167C501.109 141.353 491.881 140.308 483.025 142.189C474.209 144.076 465.977 148.055 459.023 153.79C448.027 162.659 439.867 174.931 427.157 183.193C428.931 186.07 431.52 188.353 434.595 189.755C433.693 198.559 432.803 207.479 434.234 216.206C435.665 224.933 439.751 233.595 446.983 238.687C450.396 241 454.283 242.522 458.36 243.142C462.436 243.762 466.6 243.464 470.547 242.27C478.448 239.742 485.131 234.373 489.302 227.201" stroke="#372E46" stroke-width="2" stroke-miterlimit="10"/>
<path d="M516.643 196.753C518.63 194.993 520.967 193.675 523.501 192.886C524.774 192.483 526.115 192.342 527.444 192.47C528.773 192.599 530.063 192.994 531.235 193.633C532.43 194.423 533.455 195.443 534.249 196.634C535.044 197.825 535.593 199.162 535.863 200.569C536.582 203.989 536.191 207.55 534.746 210.733C533.302 213.917 530.88 216.556 527.832 218.267C521.683 221.541 513.407 220.149 509.708 217.416C510.871 230.744 512.977 243.973 516.011 257.003" stroke="#372E46" stroke-width="2" stroke-miterlimit="10"/>
<path d="M467.079 243.251L471.449 267.42" stroke="#372E46" stroke-width="2" stroke-miterlimit="10"/>
<path d="M516.798 196.804C501.776 188.947 490.045 175.996 483.708 160.273C481.516 154.755 480.021 148.568 481.89 142.935" stroke="#372E46" stroke-width="2" stroke-miterlimit="10"/>
<path d="M484.288 142.867C486.752 151.823 491.668 159.912 498.482 166.223C505.297 172.534 513.739 176.816 522.856 178.587" stroke="#372E46" stroke-width="2" stroke-miterlimit="10"/>
<path d="M548.238 179.596C560.162 179.596 569.829 169.86 569.829 157.849C569.829 145.839 560.162 136.103 548.238 136.103C536.313 136.103 526.646 145.839 526.646 157.849C526.646 169.86 536.313 179.596 548.238 179.596Z" stroke="#372E46" stroke-width="2" stroke-miterlimit="10"/>
<path d="M518.319 209.716C520.722 207.064 523.774 205.082 527.175 203.967" stroke="#372E46" stroke-width="2" stroke-miterlimit="10"/>
<path d="M468.674 176.846C469.129 174.847 468.372 172.97 466.984 172.654C465.595 172.338 464.101 173.703 463.646 175.702C463.191 177.701 463.948 179.578 465.336 179.894C466.724 180.21 468.219 178.845 468.674 176.846Z" fill="#372E46"/>
<path d="M450.464 210.474C451.406 212.039 452.57 213.459 453.919 214.689C454.598 215.291 455.398 215.74 456.265 216.007C457.132 216.274 458.046 216.352 458.946 216.236C460.84 215.738 462.481 214.552 463.548 212.91C466.141 209.448 467.579 205.259 467.66 200.935" stroke="#372E46" stroke-width="2" stroke-miterlimit="10"/>
<path d="M469.786 266.872C400.006 285.862 334.634 318.373 277.384 362.557" stroke="#372E46" stroke-width="2" stroke-miterlimit="10"/>
<path d="M330.234 326.843C357.075 350.694 375.875 382.268 384.052 417.231C384.555 419.41 384.89 422.026 383.291 423.573C381.693 425.12 378.625 424.553 377.027 422.851C375.566 420.982 374.632 418.757 374.32 416.406" stroke="#372E46" stroke-width="2" stroke-miterlimit="10"/>
<path d="M382.156 424.345C398.228 414.619 414.577 406.786 432.109 400.036" stroke="#372E46" stroke-width="2" stroke-miterlimit="10"/>
<path d="M375.13 419.49L374.2 416.403L383.077 413.698L383.965 416.403L384.388 420.674L383.965 422.407L382.655 423.844L380.71 424.182L378.089 423.379L376.525 421.773L375.13 419.49Z" fill="#372E46"/>
<path d="M419.488 406.042C421.576 412.423 423.716 418.933 427.686 424.347C431.657 429.761 437.818 434.015 444.238 434.053C447.68 453.624 452.395 472.949 458.353 491.906L692.792 442.587L605.137 329.009" fill="#FF6200"/>
<path d="M419.488 406.042C421.576 412.423 423.716 418.933 427.686 424.347C431.657 429.761 437.818 434.015 444.238 434.053C447.68 453.624 452.395 472.949 458.353 491.906L692.792 442.587L605.137 329.009" stroke="#372E46" stroke-width="2" stroke-miterlimit="10"/>
<path d="M517.133 254.828C532.602 251.399 548.908 253.242 564.132 257.741C579.355 262.24 593.664 269.343 607.843 276.407C618.981 282.014 630.105 287.686 640.959 294.311C634.457 315.138 630.018 336.553 627.707 358.248" stroke="#372E46" stroke-width="2" stroke-miterlimit="10"/>
<path d="M641.023 295.361L655.679 298.79" stroke="#372E46" stroke-width="2" stroke-miterlimit="10"/>
<path d="M654.997 303.71C663.853 264.252 673.856 225.078 684.722 187.322C682.858 171.839 683.119 156.174 685.496 140.762C685.642 139.104 686.148 137.499 686.978 136.057C687.411 135.348 688.052 134.79 688.813 134.458C689.573 134.126 690.418 134.036 691.232 134.2C693.488 134.871 694.081 137.732 694.287 140.078C695.032 147.133 695.273 154.233 695.009 161.322C703.671 146.189 712.914 130.797 726.771 120.214C728.826 118.422 731.307 117.188 733.977 116.631C736.671 116.27 739.752 117.43 740.809 119.931" stroke="#372E46" stroke-width="2" stroke-miterlimit="10"/>
<path d="M706.443 168.841C709.665 158.774 715.543 149.712 722.453 141.771C729.362 133.831 737.328 126.754 745.243 119.767C745.952 119.148 746.816 118.478 747.718 118.723C749.007 119.071 749.136 120.837 748.904 122.152C746.107 138.175 730.664 149.531 727.145 165.412" stroke="#372E46" stroke-width="2" stroke-miterlimit="10"/>
<path d="M727.724 162.776C735.502 152.316 744.532 142.848 754.613 134.584C756.173 133.295 758.184 132.006 760.066 132.728C760.799 133.103 761.397 133.696 761.778 134.426C762.159 135.156 762.304 135.986 762.193 136.801C761.937 138.423 761.334 139.971 760.427 141.339C750.009 159.728 737.775 177.028 723.908 192.978L707.279 318.016C705.333 332.646 703.18 347.857 694.943 360.103C683.896 376.512 662.034 384.775 642.904 379.787" stroke="#372E46" stroke-width="2" stroke-miterlimit="10"/>
<path d="M383.033 413.775C356.839 421.445 330.723 429.36 304.478 436.823C295.455 439.401 286.058 441.902 276.944 439.904C261.656 436.54 251.976 421.78 244.615 407.961C225.63 372.373 210.918 334.664 200.788 295.621" stroke="#372E46" stroke-width="2" stroke-miterlimit="10"/>
<path d="M284.46 358.473L232.073 273.241" stroke="#372E46" stroke-width="2" stroke-miterlimit="10"/>
<path d="M201.806 296.889C192.11 278.782 183.806 259.963 176.966 240.596C176.219 238.495 175.677 235.646 177.637 234.499C179.815 233.21 182.29 235.633 183.644 237.786C189.431 246.99 195.245 256.18 198.571 262.6C192.088 250.215 187.805 236.799 185.912 222.949C185.661 221.711 185.661 220.435 185.912 219.198C186.047 218.565 186.363 217.985 186.82 217.527C187.278 217.07 187.858 216.755 188.49 216.62C190.488 216.336 191.958 218.386 192.912 220.177C199.022 231.598 205.145 243.032 212.041 255.948C205.903 243.709 201.744 230.574 199.718 217.032C199.46 215.331 199.344 213.333 200.607 212.172C201.245 211.692 202.02 211.433 202.818 211.433C203.616 211.433 204.392 211.692 205.029 212.172C206.284 213.163 207.294 214.429 207.981 215.872C214.821 227.852 220.56 240.429 225.125 253.448C224.888 247.229 225.272 241.002 226.272 234.86C226.607 232.759 227.561 230.168 229.714 230.155C231.867 230.142 232.834 232.63 233.259 234.666C236.044 248.179 235.926 262.13 232.911 275.593" fill="white"/>
<path d="M201.806 296.889C192.11 278.782 183.806 259.963 176.966 240.596C176.219 238.495 175.677 235.646 177.637 234.499C179.815 233.21 182.29 235.633 183.644 237.786C189.431 246.99 195.245 256.18 198.571 262.6C192.088 250.215 187.805 236.799 185.912 222.949C185.661 221.711 185.661 220.435 185.912 219.198C186.047 218.565 186.363 217.985 186.82 217.527C187.278 217.07 187.858 216.755 188.49 216.62C190.488 216.336 191.958 218.386 192.912 220.177C199.022 231.598 205.145 243.032 212.041 255.948C205.903 243.709 201.744 230.574 199.718 217.032C199.46 215.331 199.344 213.333 200.607 212.172C201.245 211.692 202.02 211.433 202.818 211.433C203.616 211.433 204.392 211.692 205.029 212.172C206.284 213.163 207.294 214.429 207.981 215.872C214.821 227.852 220.56 240.429 225.125 253.448C224.888 247.229 225.272 241.002 226.272 234.86C226.607 232.759 227.561 230.168 229.714 230.155C231.867 230.142 232.834 232.63 233.259 234.666C236.044 248.179 235.926 262.13 232.911 275.593" stroke="#372E46" stroke-width="2" stroke-miterlimit="10"/>
<path d="M205.454 300.82L201.684 292.784L220.734 279.787L221.627 297.746L205.454 300.82Z" fill="white"/>
<path d="M470.984 267.851C474.005 271.688 478.076 274.564 482.702 276.129C487.327 277.695 492.308 277.882 497.038 276.667C501.768 275.453 506.043 272.89 509.343 269.29C512.643 265.69 514.825 261.209 515.624 256.391" stroke="#372E46" stroke-width="2" stroke-miterlimit="10"/>
<path d="M489.78 288.689C496.279 288.794 502.664 286.975 508.132 283.461C513.599 279.947 517.906 274.895 520.511 268.94" stroke="white" stroke-width="2" stroke-miterlimit="10"/>
<path d="M431.605 163.728C431.303 156.223 433.577 148.841 438.05 142.807C442.515 136.825 448.234 131.893 454.808 128.356C457.656 126.758 461.253 125.353 464.063 127.067C465.025 127.74 465.789 128.658 466.276 129.725C466.764 130.793 466.956 131.972 466.834 133.139C466.542 135.469 465.717 137.701 464.424 139.661C463.754 140.783 462.697 142.033 461.407 141.75C460.923 141.589 460.509 141.264 460.239 140.831C459.968 140.398 459.857 139.884 459.925 139.378C460.082 138.362 460.505 137.406 461.15 136.606C466.423 129.233 473.952 123.777 482.599 121.06C486.467 119.771 491.094 119.166 494.497 121.486C497.63 123.613 498.88 127.763 498.48 131.527C497.861 135.268 496.493 138.846 494.459 142.046" stroke="#372E46" stroke-width="2" stroke-miterlimit="10"/>
<path d="M480.357 469.827C539.378 454.382 599.191 442.139 659.534 433.154" stroke="white" stroke-width="2" stroke-miterlimit="10"/>
<path d="M470.894 491.043C473.692 501.845 476.502 512.647 478.629 523.978L437.817 618.542" stroke="#372E46" stroke-width="2" stroke-miterlimit="10"/>
<path d="M609.275 540.01C603.294 547.551 597.313 555.092 589.939 563.213L578.828 619.454" stroke="white" stroke-width="2" stroke-miterlimit="10"/>
<path d="M659.778 450.228C679.716 504.608 700.817 558.58 723.083 612.145" stroke="#372E46" stroke-width="2" stroke-miterlimit="10"/>
<path d="M436.761 43.5654L528.335 43.1787" stroke="#372E46" stroke-width="2" stroke-miterlimit="10"/>
<path d="M437.405 58.3932L528.979 58.0065" stroke="#372E46" stroke-width="2" stroke-miterlimit="10"/>
<path d="M437.405 75.8028L480.588 75.4161" stroke="#372E46" stroke-width="2" stroke-miterlimit="10"/>
</g>
</svg>
